<svg width="42" height="32" viewBox="0 0 42 32" fill="none" xmlns="http://www.w3.org/2000/svg">
<path d="M29.5658 26.0009L33.2969 29.6774C33.8365 30.2089 33.8365 31.0699 33.2969 31.6013C32.7573 32.1328 31.8832 32.1328 31.3437 31.6013L27.6111 27.9248C25.8318 29.2719 23.6036 30.0742 21.1866 30.0742C18.2717 30.0742 15.6317 28.9087 13.7201 27.0273C11.81 25.1444 10.6268 22.544 10.6268 19.6728C10.6268 16.8016 11.81 14.1997 13.7201 12.3183C15.6317 10.4368 18.2717 9.27134 21.1866 9.27134C24.1016 9.27134 26.7416 10.4368 28.6532 12.3183C30.5633 14.1997 31.7465 16.8016 31.7465 19.6728C31.7465 22.0521 30.9319 24.2483 29.5658 26.0009ZM26.6985 14.2422C25.2893 12.8542 23.3405 11.9947 21.1866 11.9947C19.0328 11.9947 17.084 12.8542 15.6748 14.2422C14.2642 15.6317 13.3916 17.5512 13.3916 19.6728C13.3916 21.7929 14.2642 23.7139 15.6748 25.1019C17.084 26.4914 19.0328 27.3509 21.1866 27.3509C23.3405 27.3509 25.2893 26.4914 26.6985 25.1019C28.1091 23.7139 28.9817 21.7929 28.9817 19.6728C28.9817 17.5512 28.1091 15.6317 26.6985 14.2422Z" fill="#6427FF"/>
<path d="M29.5658 26.0009L33.2969 29.6774C33.8365 30.2089 33.8365 31.0699 33.2969 31.6013C32.7573 32.1328 31.8832 32.1328 31.3437 31.6013L27.6111 27.9248C25.8318 29.2719 23.6036 30.0742 21.1866 30.0742C18.2717 30.0742 15.6317 28.9087 13.7201 27.0273C11.81 25.1444 10.6268 22.544 10.6268 19.6728C10.6268 16.8016 11.81 14.1997 13.7201 12.3183C15.6317 10.4368 18.2717 9.27134 21.1866 9.27134C24.1016 9.27134 26.7416 10.4368 28.6532 12.3183C30.5633 14.1997 31.7465 16.8016 31.7465 19.6728C31.7465 22.0521 30.9319 24.2483 29.5658 26.0009ZM26.6985 14.2422C25.2893 12.8542 23.3405 11.9947 21.1866 11.9947C19.0328 11.9947 17.084 12.8542 15.6748 14.2422C14.2642 15.6317 13.3916 17.5512 13.3916 19.6728C13.3916 21.7929 14.2642 23.7139 15.6748 25.1019C17.084 26.4914 19.0328 27.3509 21.1866 27.3509C23.3405 27.3509 25.2893 26.4914 26.6985 25.1019C28.1091 23.7139 28.9817 21.7929 28.9817 19.6728C28.9817 17.5512 28.1091 15.6317 26.6985 14.2422Z" stroke="#6427FF"/>
<path fill-rule="evenodd" clip-rule="evenodd" d="M39.3437 20.5991H39.5535C40.2022 20.5991 40.8243 20.3452 41.283 19.8934C42.2382 18.9526 42.2382 17.4272 41.283 16.4863L27.0529 2.46971C23.7098 -0.823236 18.2896 -0.823236 14.9465 2.46971L0.716377 16.4863C0.257688 16.9381 0 17.5509 0 18.1899C0 19.5204 1.09505 20.5991 2.44587 20.5991H2.65569C7.24865 20.0519 13.2503 19.7784 20.6607 19.7784C28.071 19.7784 34.2987 20.0519 39.3437 20.5991Z" fill="#6427FF"/>
</svg>
