<svg width="923" height="583" viewBox="0 0 923 583" fill="none" xmlns="http://www.w3.org/2000/svg">
<path d="M486.976 88.4273C428.809 74.75 386.459 88.0422 338.083 104.734C314.237 112.962 290.099 121.663 264.971 124.973C246.215 127.444 227.267 128.099 208.44 129.97C188.867 131.915 169.302 134.369 150.092 138.687C117.73 145.962 61.3659 159.366 64.8239 202.935C66.2085 220.382 78.1189 236.241 76.9165 253.702C75.3746 276.08 54.4969 293.414 40.8195 309.225C21.9393 331.051 4.95994 355.272 8.0742 385.614C10.5852 410.088 26.4809 431.594 46.079 446.466C65.677 461.339 88.8697 470.57 111.721 479.684C146.528 493.565 175.961 509.822 203.342 535.634C219.204 550.586 236.092 565.401 256.649 572.648C284.273 582.387 319.489 573.913 330.739 544.66C336.871 528.712 338.595 510.147 348.106 495.659C357.903 480.735 378.56 468.178 396.783 470.593C426.462 474.528 438.037 496.547 452.184 519.706C459.093 531.016 467.294 541.433 478.898 548.223C498.803 559.87 518.691 555.328 539.675 550.603C562.347 545.498 585.251 541.372 608.33 538.613C647.487 533.933 686.883 536.028 725.901 540.95C762.95 545.624 816.745 569.983 847.3 536.924C860.688 522.441 863.354 502.612 858.478 484.111C851.491 457.599 836.457 428.167 837.269 400.632C838.467 359.981 856.79 332.923 879.184 301.16C889.909 285.95 898.171 269.049 897.784 250.02C896.897 206.239 869.45 172.624 840.833 142.438C812.279 112.318 783.752 77.9996 754.861 51.2924" stroke="#ED725A" stroke-width="1.77856" stroke-miterlimit="10"/>
<path d="M902.902 133.131C902.902 139.492 897.746 144.648 891.385 144.648C885.024 144.648 879.868 139.492 879.868 133.131C879.868 126.77 885.025 121.614 891.385 121.614C897.746 121.614 902.902 126.77 902.902 133.131Z" stroke="#ED725A" stroke-width="1.77856" stroke-miterlimit="10"/>
<path d="M517.325 523.072C517.325 529.433 512.169 534.589 505.808 534.589C499.447 534.589 494.291 529.433 494.291 523.072C494.291 516.711 499.448 511.555 505.808 511.555C512.169 511.555 517.325 516.711 517.325 523.072Z" stroke="#ED725A" stroke-width="1.77856" stroke-miterlimit="10"/>
<path d="M477.096 21.6014C481.878 21.6014 485.753 25.4777 485.753 30.2581V201.408C485.753 206.19 481.877 210.064 477.096 210.064H144.915C140.133 210.064 136.258 206.188 136.258 201.408V30.2581C136.258 25.4777 140.135 21.6014 144.915 21.6014H477.096ZM477.096 19.5308H144.915C139 19.5308 134.188 24.343 134.188 30.2581V201.408C134.188 207.323 139 212.135 144.915 212.135H477.096C483.011 212.135 487.824 207.323 487.824 201.408V30.2581C487.825 24.343 483.011 19.5308 477.096 19.5308Z" fill="white"/>
<path d="M477.1 210.063H144.918C140.137 210.063 136.262 206.186 136.262 201.406V44.6844H485.758V201.406C485.758 206.188 481.881 210.063 477.1 210.063Z" fill="#AFB9E8"/>
<path d="M156.587 33.8171C156.587 36.5531 154.369 38.7715 151.633 38.7715C148.897 38.7715 146.678 36.5531 146.678 33.8171C146.678 31.0811 148.897 28.8628 151.633 28.8628C154.369 28.8628 156.587 31.0811 156.587 33.8171Z" stroke="white" stroke-width="1.77856" stroke-miterlimit="10"/>
<path d="M175.792 33.8171C175.792 36.5531 173.574 38.7715 170.838 38.7715C168.102 38.7715 165.884 36.5531 165.884 33.8171C165.884 31.0811 168.102 28.8628 170.838 28.8628C173.574 28.8628 175.792 31.0811 175.792 33.8171Z" stroke="white" stroke-width="1.77856" stroke-miterlimit="10"/>
<path d="M136.262 44.6844H485.758" stroke="white" stroke-width="1.77856" stroke-miterlimit="10"/>
<path d="M457.659 186.06C454.144 181.402 448.146 177.114 443.464 180.322C439.535 183.014 439.389 189.092 439.694 194.144C428.554 178.374 415.299 164.386 400.483 152.763C392.454 146.466 383.227 140.644 373.365 141.404C363.503 142.163 358.387 156.002 360.98 166.414C334.053 130.759 304.023 105.468 272.749 83.5844C262.076 76.1162 250.232 68.9146 237.569 64.6573C224.1 60.1281 205.495 54.8204 193.325 65.3365C188.111 69.8422 185.394 76.7167 184.654 83.5678C183.739 92.0478 185.173 101.003 187.484 109.173C193.011 128.719 201.876 147.148 212.159 164.508C222.446 181.874 245.073 210.392 245.073 210.392H468.368C466.658 201.501 462.95 193.074 457.659 186.06Z" fill="#909DF4"/>
<path d="M340.233 175.458C340.233 175.458 297.364 138.279 278.976 131.975C260.589 125.67 222.806 135.797 222.333 135.797C221.858 135.797 188.511 210.07 188.511 210.07H325.279L340.233 175.458Z" fill="#EF9748"/>
<path d="M421.675 276.399C424.801 279.661 428.051 282.804 431.414 285.823C434.658 288.736 438.211 291.334 441.375 294.314C442.155 295.05 442.867 295.855 443.577 296.658C446.164 299.585 448.773 302.543 450.657 305.965C450.908 306.421 451.152 306.893 451.529 307.25C451.908 307.608 452.456 307.834 452.954 307.685C453.472 307.531 453.8 307.027 454.02 306.533C454.931 304.481 454.704 302.102 454.147 299.927C453.789 298.528 453.3 297.166 452.91 295.776C452.585 294.625 452.112 293.385 452.286 292.191C461.47 296.028 468.941 302.981 477.314 308.359C479.029 309.461 482.807 309.871 483.444 308.355C484.286 306.349 472.067 297.296 466.471 291.312C470.69 293.468 475.165 295.725 478.974 298.562C481.613 300.528 484.494 302.205 487.643 303.206C489.41 303.768 493.467 304.6 492.64 301.373C492.396 300.42 491.678 299.672 490.974 298.987C485.503 293.677 478.901 289.925 473.152 284.917C479.624 287.469 485.563 292.042 492.514 292.282C493.192 292.306 493.924 292.269 494.458 291.852C495.271 291.218 495.543 290.336 495.014 289.451C494.484 288.566 493.572 287.995 492.693 287.457C486.242 283.51 479.52 279.149 473.07 275.202C476.539 276.144 479.747 277.843 483.069 279.213C486.394 280.582 489.979 281.641 493.546 281.196C494.694 281.053 496.12 280.314 495.859 279.188C495.734 278.642 495.237 278.277 494.774 277.962C486.933 272.602 479.092 267.242 471.253 261.883C469.054 260.379 466.853 258.875 464.598 257.456C461.883 255.747 458.748 254.478 456.226 252.555C454.256 251.055 451.877 249.941 449.765 248.643C444.547 245.438 439.493 241.981 434.593 238.308" fill="#FFCAA3"/>
<path d="M452.459 292.162C449.991 291.076 447.484 290.076 444.946 289.165" stroke="black" stroke-width="1.18571" stroke-miterlimit="10"/>
<path d="M466.838 291.296C463.489 289.004 460.02 286.888 456.449 284.961" stroke="black" stroke-width="1.18571" stroke-miterlimit="10"/>
<path d="M473.171 284.784C470.42 283.041 467.67 281.297 464.919 279.554" stroke="black" stroke-width="1.18571" stroke-miterlimit="10"/>
<path d="M476.203 276.912C474.155 275.785 472.184 274.517 470.306 273.123" stroke="black" stroke-width="1.18571" stroke-miterlimit="10"/>
<path d="M288.85 133.132C305.784 138.455 314.282 138.941 329.431 148.34C345.53 158.327 385.354 200.29 385.354 200.29C385.354 200.29 439.093 238.177 459.233 252.503L423.054 286.987C383.036 263.065 341.96 234.505 311.625 199.1" fill="#EF9748"/>
<path d="M227.406 202.866C227.406 202.866 244.2 193.858 251.591 191.999C261.828 189.424 273.97 188.697 277.226 189.688C278.75 190.152 284.485 192.508 287.486 196.019C290.674 197.413 291.969 198.111 293.861 198.908C295.754 199.704 296.643 201.932 298.625 203.63C300.606 205.328 302.782 210.058 302.782 210.058C302.782 210.058 287.669 210.109 283.424 210.25C279.177 210.39 274.593 218.496 265.094 221.368" fill="#FFCAA3"/>
<path d="M262.008 126.452C250.357 126.358 239.011 123.322 227.384 123.315C206.264 123.303 194.143 134.382 183.87 149.74C176.091 161.368 168.766 175.679 163.254 188.447C156.821 203.35 149.615 219.945 147.738 236.221C146.879 243.665 147.949 251.354 151.391 257.971C157.759 270.211 171.908 272.349 180.162 273.266C188.415 274.184 202.878 271.395 209.961 267.003C247.243 243.886 271.893 220.718 271.893 220.718L231.786 200.16L212.545 207.689L236.844 162.769" fill="#EF9748"/>
<path d="M234.87 166.415L212.546 207.689" stroke="black" stroke-width="1.18571" stroke-miterlimit="10"/>
<path d="M231.788 200.161C220.288 204.624 208.786 209.086 197.286 213.549C189.434 216.595 181.736 222.624 175.482 228.228" stroke="black" stroke-width="1.18571" stroke-miterlimit="10"/>
<path d="M218.008 205.766L259.559 231.335" stroke="black" stroke-width="1.18571" stroke-miterlimit="10"/>
<path d="M329.69 185.761C324.189 194.855 316.571 210.059 316.571 210.059" stroke="black" stroke-width="1.18571" stroke-miterlimit="10"/>
<path d="M444.56 242.103L404.25 275.678" stroke="black" stroke-width="1.18571" stroke-miterlimit="10"/>
<path d="M285.938 200.323C288.86 201.098 291.833 201.685 294.832 202.079C295.758 202.2 296.723 202.316 297.507 202.823" stroke="black" stroke-width="1.18571" stroke-miterlimit="10"/>
<path d="M288.511 196.809C287.992 196.549 287.445 196.348 286.898 196.148C284.005 195.085 281.026 194.007 277.945 194.087" stroke="black" stroke-width="1.18571" stroke-miterlimit="10"/>
<path d="M279.125 211.938C280.689 210.811 282.622 210.3 284.538 210.102C288.516 209.689 292.775 210.546 296.593 209.05" stroke="black" stroke-width="1.18571" stroke-miterlimit="10"/>
<path d="M129.715 239.106C130.36 254.837 140.398 269.823 154.701 276.406" stroke="black" stroke-width="1.18571" stroke-miterlimit="10"/>
<path d="M118.578 238.424C118.903 248.689 123.141 258.636 129.712 264.557" stroke="black" stroke-width="1.18571" stroke-miterlimit="10"/>
<path d="M344.797 138.844C357.063 149.226 368.458 160.641 378.818 172.927" stroke="black" stroke-width="1.18571" stroke-miterlimit="10"/>
<path d="M345.072 126.537C353.627 132.89 361.468 140.204 368.397 148.297" stroke="black" stroke-width="1.18571" stroke-miterlimit="10"/>
<path d="M246.026 147.387C239.544 145.059 233.538 141.594 227.61 138.086C225.096 136.598 222.556 135.074 220.527 132.971C218.498 130.869 217.005 128.088 217.063 125.167C217.117 122.475 218.465 119.964 220.139 117.854C225.363 111.275 233.805 107.86 242.171 107.101C250.536 106.342 258.929 107.957 267.106 109.887C279.396 112.787 291.942 116.642 301.425 124.982C304.093 127.33 306.509 130.051 308 133.278C310.058 137.735 310.21 142.883 309.33 147.713C308.451 152.543 306.598 157.133 304.758 161.684" fill="#EF9748"/>
<path d="M279.276 98.8323L262.749 103.647L263.119 111.956L254.754 126.228C254.754 126.228 274.528 133.887 281.963 149.504C290.062 150.707 293.305 144.142 293.305 144.142L301.267 125.063" fill="#FFCAA3"/>
<path d="M318.165 115.415C319.589 107.223 321.305 98.3588 321.171 91.8349C321.058 86.3118 320.213 77.9712 316.646 73.645C312.055 68.0736 303.694 67.9838 296.675 67.2011C285.152 65.9173 277.188 76.3561 273.777 86.1075C271.157 93.5991 271.372 100.911 273.799 108.633C276.971 118.726 288.219 132.281 302.854 130.618C310.621 129.736 316.656 124.091 318.165 115.415Z" fill="#FFCAA3"/>
<path d="M304.022 97.5129C303.881 98.7318 303.011 99.6333 302.078 99.5256C301.145 99.4179 300.503 98.3426 300.644 97.1223C300.785 95.9033 301.656 95.0019 302.588 95.1096C303.521 95.2173 304.163 96.2926 304.022 97.5129Z" fill="black"/>
<path d="M319.971 99.0274C319.83 100.246 318.959 101.148 318.027 101.04C317.094 100.932 316.452 99.857 316.593 98.6367C316.734 97.4178 317.605 96.5164 318.537 96.624C319.47 96.7331 320.112 97.8084 319.971 99.0274Z" fill="black"/>
<path d="M312.903 96.3242C312.548 99.1472 312.84 102.016 312.845 104.848C312.849 106.601 312.911 109.69 310.634 110.087C309.14 110.348 305.886 109.458 305.886 109.458" stroke="black" stroke-width="1.18571" stroke-miterlimit="10"/>
<path d="M307.158 114.466L301.183 109.435C301.183 109.435 296.796 115.17 299.062 117.247C302.723 120.606 307.158 114.466 307.158 114.466Z" fill="white"/>
<path d="M316.858 75.3879C319.494 79.5113 320.949 82.8284 321.061 95.1985C322.322 94.8837 323.601 94.5621 324.734 93.9257C325.867 93.2893 326.858 92.2885 327.191 91.0323C327.808 88.7049 326.074 86.4024 325.979 83.9963C325.91 82.2583 326.705 80.6004 327.649 79.1386C328.375 78.0135 329.226 76.8926 329.4 75.5646C329.645 73.6942 328.473 71.9162 327.076 70.6476C323.957 67.8163 319.775 66.6885 316.192 64.6109C314.455 63.6046 313.532 62.0323 311.919 60.8506C310.098 59.5158 308.152 58.3535 306.115 57.3816C301.414 55.1371 296.257 53.925 291.058 53.7042C280.984 53.2735 271.031 57.0351 264.007 64.0726C254.722 73.378 250.995 91.1248 256.821 101.402C260.105 107.194 263.119 111.954 263.119 111.954C263.492 112.546 271.526 105.334 272.019 104.353C272.518 103.36 272.705 102.246 273.01 101.176C274.05 97.53 277.675 96.9185 280.782 95.7796C285.314 94.1204 287.581 90.0854 288.459 85.5313C288.964 82.914 289.039 80.2332 289.112 77.569C289.097 78.1654 292.759 79.4519 293.307 79.6217C298.71 81.2879 304.816 81.5819 310.3 80.1062C311.919 79.6714 313.645 79.1137 314.924 78.008C315.275 77.7057 317.441 75.9815 316.858 75.3879Z" fill="#1E1611"/>
<path d="M283.093 123.299C283.382 123.509 289.119 129.775 300.093 130.755" stroke="black" stroke-width="1.18571" stroke-miterlimit="10"/>
<path d="M294.356 88.8385C295.332 86.9266 297.285 85.5462 299.415 85.2673C301.544 84.9885 303.787 85.8181 305.224 87.4139" stroke="black" stroke-width="1.18571" stroke-miterlimit="10"/>
<path d="M314.641 89.1024C315.366 87.4832 316.901 86.4492 318.241 86.6784C319.581 86.9075 320.593 88.3956 320.676 90.1308" stroke="black" stroke-width="1.18571" stroke-miterlimit="10"/>
<path d="M309.769 100.653C308.373 104.802 303.959 107.007 299.91 105.577C295.861 104.146 293.71 99.6214 295.106 95.4718C296.502 91.3223 300.916 89.1177 304.965 90.5478C309.014 91.978 311.165 96.503 309.769 100.653Z" stroke="#572A2F" stroke-width="1.18571" stroke-miterlimit="10"/>
<path d="M324.651 102.595C323.9 106.917 321.114 110.023 318.428 109.533C315.741 109.043 314.172 105.142 314.921 100.821C315.672 96.4989 318.458 93.3929 321.144 93.883C323.832 94.373 325.402 98.2727 324.651 102.595Z" stroke="#572A2F" stroke-width="1.18571" stroke-miterlimit="10"/>
<path d="M315.63 98.5282L310.175 97.5067" stroke="#572A2F" stroke-width="1.18571" stroke-miterlimit="10"/>
<path d="M295.416 94.6916L278.982 95.9464" stroke="#572A2F" stroke-width="1.18571" stroke-miterlimit="10"/>
<path d="M283.676 98.9064C283.595 94.9224 278.218 91.7985 274.681 93.0685C266.178 96.122 269.042 111.351 276.944 112.811C279.179 113.224 282.388 112.345 283.179 109.813" fill="#FFCAA3"/>
<path d="M274.068 99.8624L281.376 106.483" stroke="black" stroke-width="1.18571" stroke-miterlimit="10"/>
<path d="M279.923 93.9958C281.703 95.067 283.147 96.7125 284.005 98.6534" stroke="black" stroke-width="1.18571" stroke-miterlimit="10"/>
<path d="M269.818 105.629C270.914 108.885 273.152 112.332 276.694 112.919C279.153 113.326 281.969 112.25 282.975 109.698" stroke="black" stroke-width="1.18571" stroke-miterlimit="10"/>
<path d="M251.047 83.2123C251.213 77.8535 251.801 72.4546 253.544 67.3843C255.288 62.314 258.259 57.5612 262.545 54.3406C264.918 52.5585 267.63 51.283 270.375 50.1552C272.686 49.2054 275.046 48.3496 277.491 47.8291C286.65 45.88 296.136 48.7775 304.716 52.5295" fill="#FFC36C"/>
<path d="M308.822 53.2664C306.561 51.0867 303.635 49.6787 300.593 48.8987C298.779 48.4335 296.903 48.1809 295.034 48.2734C294.062 48.3217 293.096 48.4639 292.141 48.6516C285.502 49.9575 279.518 53.4404 273.764 57.0005C266.081 61.7547 258.411 66.8719 252.776 73.9342C250.741 76.4838 248.941 79.4255 248.759 82.682C248.658 84.4862 249.065 86.2849 249.656 87.9939C250.653 90.8748 252.996 94.9843 254.957 97.3186C271.855 81.5114 290.835 69.0061 312.748 61.5766C312.633 58.4389 311.083 55.4461 308.822 53.2664Z" fill="#FFC36C"/>
<path d="M252.145 74.7518C252.145 74.7518 266.411 54.864 292.889 48.2545" stroke="black" stroke-width="1.18571" stroke-miterlimit="10"/>
<path d="M259.561 76.9962C261.649 80.6074 263.79 84.2835 266.9 87.0651" stroke="black" stroke-width="1.18571" stroke-miterlimit="10"/>
<path d="M276.228 62.0432C278.391 66.6014 281.076 70.929 284.218 74.9171" stroke="black" stroke-width="1.18571" stroke-miterlimit="10"/>
<path d="M293.91 52.543C297.557 56.3019 300.675 60.5729 303.144 65.1932" stroke="black" stroke-width="1.18571" stroke-miterlimit="10"/>
<path d="M300.008 50.3919C303.142 54.2516 305.889 58.8346 307.935 63.3044" stroke="black" stroke-width="1.18571" stroke-miterlimit="10"/>
<path d="M251.266 79.2246C252.29 84.9548 255.643 89.8111 259.922 93.2608" stroke="black" stroke-width="1.18571" stroke-miterlimit="10"/>
<path d="M241.508 120.928C249.585 123.945 257.744 127.002 264.93 131.765C272.118 136.528 279.396 143.22 281.963 151.452" stroke="black" stroke-width="1.18571" stroke-miterlimit="10"/>
<path d="M287.561 148.943C291.239 147.179 294.226 144.018 295.779 140.246" stroke="black" stroke-width="1.18571" stroke-miterlimit="10"/>
<path d="M217.064 124.298C220.799 145.749 249.098 141.645 262.28 148.296" stroke="black" stroke-width="1.18571" stroke-miterlimit="10"/>
<path d="M309.815 139.88C309.298 142.826 308.279 145.764 306.325 148.028C303.387 151.428 298.821 152.836 294.506 154.086" stroke="black" stroke-width="1.18571" stroke-miterlimit="10"/>
<path d="M298.412 148.942C300.375 162.433 302.362 177.551 301.733 191.169" stroke="black" stroke-width="1.18571" stroke-miterlimit="10"/>
<path d="M268.426 145.845C270.474 151.451 269.511 166.651 269.289 180.362" stroke="black" stroke-width="1.18571" stroke-miterlimit="10"/>
<path d="M405.391 538.674H98.0561C93.2743 538.674 89.3994 534.798 89.3994 530.017V321.92H414.047V530.017C414.047 534.799 410.171 538.674 405.391 538.674Z" fill="#D4BCDD"/>
<path d="M405.39 293.867C410.172 293.867 414.046 297.743 414.046 302.523V530.016C414.046 534.798 410.17 538.673 405.39 538.673H98.0551C93.2733 538.673 89.3984 534.797 89.3984 530.016V302.523C89.3984 297.741 93.2747 293.867 98.0551 293.867H405.39ZM405.39 291.796H98.0551C92.14 291.796 87.3278 296.608 87.3278 302.523V530.016C87.3278 535.932 92.14 540.744 98.0551 540.744H405.388C411.304 540.744 416.116 535.932 416.116 530.016V302.523C416.117 296.608 411.305 291.796 405.39 291.796Z" fill="white"/>
<path d="M114.1 308.715C114.1 312.04 111.404 314.736 108.08 314.736C104.755 314.736 102.06 312.04 102.06 308.715C102.06 305.389 104.756 302.695 108.08 302.695C111.404 302.695 114.1 305.391 114.1 308.715Z" stroke="white" stroke-width="1.77856" stroke-miterlimit="10"/>
<path d="M131.419 314.733C134.744 314.733 137.439 312.037 137.439 308.712C137.439 305.388 134.744 302.692 131.419 302.692C128.095 302.692 125.399 305.388 125.399 308.712C125.399 312.037 128.095 314.733 131.419 314.733Z" stroke="white" stroke-width="1.77856" stroke-miterlimit="10"/>
<path d="M89.3994 321.92H414.047" stroke="white" stroke-width="1.77856" stroke-miterlimit="10"/>
<path d="M382.848 538.674C378.488 527.925 372.55 517.858 365.295 508.922C360.842 503.436 355.667 498.221 349.133 495.808C342.6 493.394 334.445 494.451 330.003 499.946C326.605 504.15 325.959 509.956 325.452 515.402C314.69 503.85 303.79 492.182 290.664 483.613C277.537 475.045 261.607 468.95 246.407 472.283C229.552 475.978 229.552 497.281 229.552 497.281C229.552 497.281 219.219 482.797 218.286 481.435C211.376 471.327 203.558 462.07 195.238 453.18C187.067 444.45 179.297 435.269 170.092 427.648C160.919 420.054 146.033 410.357 133.704 414.952C127.29 417.343 125.523 422.908 126.947 429.324C128.277 435.329 128.979 441.346 130.845 447.257C120.477 435.7 108.677 425.058 94.9979 417.865C85.1277 412.674 64.5344 403.88 54.2902 412.38C51.336 414.832 49.9943 418.893 49.9073 422.8C49.3703 446.712 66.5995 472.408 80.4812 490.075C94.7231 508.201 111.905 524.257 129.698 538.674H382.848Z" fill="#FFDD99"/>
<path d="M320.472 430.639C318.63 440.803 319.177 451.311 319.226 461.696C319.276 472.082 320.113 478.877 316.355 488.304C312.963 496.817 305.879 499.709 302.181 508.047C300.298 512.293 293.157 538.652 293.157 538.652H197.254C197.254 538.652 194.565 497.217 209.353 461.858C224.142 426.496 242.629 420.155 242.629 420.155L297.191 406.081L320.472 430.639Z" fill="#735D9D"/>
<path d="M446.115 368.824C448.96 365.393 452.94 363.239 456.346 360.448C459.487 357.876 461.834 354.269 464.439 351.154C467.625 347.342 470.101 343.006 472.865 338.894C475.83 334.481 479.63 330.911 483.393 327.196C483.915 326.68 484.449 326.148 484.746 325.478C485.283 324.266 484.658 322.672 483.266 322.297C480.547 321.564 477.647 322.26 475.009 323.247C473.442 323.833 468.128 325.715 467.805 322.724C467.441 319.343 470.271 314.406 471.356 311.273C472.765 307.197 474.209 303.11 475.354 298.948C476.443 294.984 476.196 287.365 474.088 287.241C471.979 287.117 473.57 288.38 473.021 288.678C473.901 287.519 472.36 284.842 471.095 284.043C469.831 283.243 468.185 285.832 467.807 287.227C468.238 285.865 467.041 283.613 466.027 283.519C464.553 283.383 463.407 284.78 462.528 285.919C461.649 287.057 460.867 288.33 459.624 289.092C459.633 288.115 459.487 287.135 459.19 286.196C458.229 285.652 457.125 286.552 456.431 287.372C442.296 304.06 432.733 324.753 417.054 340.818" fill="#E27769"/>
<path d="M468.138 320.429C468.188 324.537 468.083 328.646 467.825 332.748" stroke="black" stroke-width="1.18571" stroke-miterlimit="10"/>
<path d="M472.57 287.699C471.336 291.576 468.953 294.853 467.163 298.461C464.312 304.202 461.765 310.084 459.12 315.92" stroke="black" stroke-width="1.18571" stroke-miterlimit="10"/>
<path d="M467.705 286.935C466.842 288.749 465.858 290.504 464.76 292.186C463.584 293.989 462.281 295.704 461.022 297.449C457.422 302.438 454.177 307.682 451.316 313.13" stroke="black" stroke-width="1.18571" stroke-miterlimit="10"/>
<path d="M459.134 289.713C458.182 291.745 456.627 293.42 455.16 295.118C450.563 300.435 446.605 306.303 443.399 312.558" stroke="black" stroke-width="1.18571" stroke-miterlimit="10"/>
<path d="M269.661 411.581C286.82 404.401 298.059 396.861 315.047 389.209C330.364 382.311 351.859 376.653 366.962 369.289C387.848 359.107 407.433 347.861 424.601 332.455L455.791 365.292C455.791 365.292 411.715 410.255 396.327 419.019C359.244 440.141 345.737 444.096 307.189 464.256" fill="#735D9D"/>
<path d="M318.788 458.612C319.006 450.857 320.775 443.149 323.961 436.074" stroke="black" stroke-width="1.18571" stroke-miterlimit="10"/>
<path d="M414.193 341.089L445.126 375.807" stroke="black" stroke-width="1.18571" stroke-miterlimit="10"/>
<path d="M264.67 506.773C277.751 507.016 290.777 509.081 302.117 515.972C307.563 519.281 310.597 523.708 312.098 529.853C313.365 535.04 313.775 540.588 313.309 545.91C313.264 546.415 312.874 546.88 312.439 546.985C311.825 547.134 310.589 546.521 310.589 546.521C310.589 546.521 311.705 551.797 310.523 552.895C309.7 553.66 308.147 552.62 307.563 551.984C306.883 551.242 305.954 549.348 305.954 549.348C305.954 549.348 306.734 552.376 306.075 552.898C305.098 553.671 302.272 551.71 301.604 549.727C301.193 550.853 300.522 551.898 299.482 551.622C296.213 550.754 293.655 546.129 290.965 543.836C287.39 540.788 282.594 540.581 278.134 540.649C276.081 540.679 274.023 540.73 271.976 540.528C269.879 540.319 267.99 539.496 265.944 539.082C262.137 538.312 258.166 537.96 254.303 537.735" fill="#E27769"/>
<path d="M288.825 534.021C292.416 535.513 296.22 537.175 298.241 540.252C298.846 541.173 299.261 542.184 299.633 543.2C300.414 545.342 301.01 547.536 301.605 549.726" stroke="black" stroke-width="1.18571" stroke-miterlimit="10"/>
<path d="M293.978 527.534C296.019 528.831 298.021 530.216 299.752 531.906C301.483 533.595 302.942 535.608 303.731 537.894C304.181 539.201 304.406 540.573 304.632 541.937C305.097 544.746 305.579 547.553 306.075 550.357" stroke="black" stroke-width="1.18571" stroke-miterlimit="10"/>
<path d="M300.99 523.073C304.39 525.607 307.053 529.12 308.573 533.079C309.918 536.58 310.366 540.35 310.805 544.076C310.945 545.256 311.083 546.436 311.222 547.617" stroke="black" stroke-width="1.18571" stroke-miterlimit="10"/>
<path d="M250.269 414.09C250.269 414.09 223.197 418.095 212.808 424.062C196.566 433.393 189.426 447.633 179.076 471.782C168.725 495.931 164.527 506.529 164.427 514.53C164.277 526.309 169.58 538.654 191.246 538.654C229.841 538.654 260.341 538.654 260.341 538.654L274.282 506.09L220.516 497.678L235.353 462.942" fill="#735D9D"/>
<path d="M274.274 506.09L220.509 497.678L235.346 462.942" stroke="black" stroke-width="1.18571" stroke-miterlimit="10"/>
<path d="M201.42 502.648C201.834 502.648 210.017 497.548 220.515 497.678" stroke="black" stroke-width="1.18571" stroke-miterlimit="10"/>
<path d="M259.445 503.772L244.696 538.657" stroke="black" stroke-width="1.18571" stroke-miterlimit="10"/>
<path d="M292.24 422.385C292.951 418.712 292.927 414.792 292.337 410.852" stroke="black" stroke-width="1.18571" stroke-miterlimit="10"/>
<path d="M234.943 421.457C237.926 428.906 244.525 435.082 251.734 438.242C260.81 442.219 273.121 442.955 281.795 437.643C285.836 435.168 288.616 431.914 290.369 428.198" stroke="black" stroke-width="1.18571" stroke-miterlimit="10"/>
<path d="M387.641 435.422C403.805 427.188 418.584 416.246 431.175 403.187" stroke="black" stroke-width="1.18571" stroke-miterlimit="10"/>
<path d="M417.791 427.606C425.626 421.538 432.973 414.839 439.737 407.596" stroke="black" stroke-width="1.18571" stroke-miterlimit="10"/>
<path d="M158.558 494.215C155.139 505.366 153.905 517.182 154.949 528.799" stroke="black" stroke-width="1.18571" stroke-miterlimit="10"/>
<path d="M147.765 495.877C145.607 502.134 144.373 508.711 144.118 515.326" stroke="black" stroke-width="1.18571" stroke-miterlimit="10"/>
<path d="M259.327 380.805L244.522 390.727L247.717 401.31L243.266 417.262C242.981 418.279 243.154 419.362 243.742 420.238C246.16 423.84 253.666 432.789 268.541 432.775C284.264 432.76 284.044 422.331 284.044 422.331L286.907 400.117" fill="#E27769"/>
<path d="M289.108 379.48C285.038 371.895 282.712 367.201 278.435 361.971C274.814 357.542 268.799 351.285 263.129 350.038C255.828 348.43 248.957 353.698 242.738 357.544C232.527 363.858 232.705 377.451 236.154 387.576C238.803 395.355 244.28 398.323 251.191 403.066C260.221 409.264 279.851 412.068 288.279 405.276C294.583 400.197 293.42 387.514 289.108 379.48Z" fill="#E27769"/>
<path d="M267.283 378.814C267.766 379.99 267.429 381.242 266.529 381.612C265.63 381.982 264.51 381.329 264.026 380.153C263.543 378.978 263.88 377.724 264.78 377.354C265.679 376.984 266.8 377.637 267.283 378.814Z" fill="black"/>
<path d="M281.777 370.823C282.26 371.998 281.924 373.251 281.025 373.621C280.126 373.991 279.005 373.337 278.522 372.162C278.039 370.986 278.376 369.734 279.276 369.364C280.173 368.994 281.294 369.647 281.777 370.823Z" fill="black"/>
<path d="M274.018 375.932C275.641 377.379 277.597 378.352 279.556 379.256C280.77 379.816 284.816 380.895 283.913 382.863C283.333 384.128 280.967 386.125 280.967 386.125" stroke="black" stroke-width="1.18571" stroke-miterlimit="10"/>
<path d="M244.395 413.207C244.395 413.207 246.243 408.478 246.693 406.787C247.451 403.931 245.048 403.784 244.219 401.269C243.787 399.959 244.142 398.354 244.433 397.056C245.057 394.272 246.492 391.145 245.206 388.335C244.393 386.555 242.646 385.427 241.247 384.059C239.848 382.691 238.709 380.606 239.547 378.837C240.538 376.745 243.466 376.589 245.262 375.127C247.056 373.666 247.476 371.09 247.353 368.78C247.23 366.469 246.697 364.141 247.102 361.864C247.175 361.454 247.288 361.028 247.578 360.729C248.455 359.821 249.916 360.7 251.017 361.318C252.995 362.431 255.387 362.293 257.456 361.455C258.506 361.03 259.468 360.251 259.846 359.184C260.081 358.526 260.078 357.809 260.192 357.119C260.307 356.429 260.579 355.705 261.175 355.34C261.609 355.075 262.144 355.041 262.651 355.064C264.248 355.135 265.82 355.694 267.104 356.65C268.18 357.45 268.783 358.03 270.138 357.979C271.44 357.929 272.692 357.499 273.993 357.877C275.561 358.334 276.609 359.771 277.533 361.117C280.079 364.822 282.625 368.527 285.17 372.232C286.443 370.395 287.735 368.517 288.362 366.372C288.987 364.227 288.842 361.73 287.434 359.994C286.077 358.323 283.761 357.573 282.608 355.754C281.334 353.744 281.531 350.839 281.393 348.563C281.243 346.078 280.478 343.57 279.059 341.472C277.685 339.441 275.377 337.863 272.932 338.05C271.518 338.157 270.172 338.837 268.754 338.794C267.877 338.768 267.034 338.467 266.229 338.12C262.501 336.52 259.269 333.924 255.554 332.293C251.839 330.663 247.179 330.168 243.974 332.655C242.33 333.931 241.239 335.863 239.45 336.925C234.291 339.987 226.889 334.219 221.974 337.655C218.801 339.872 218.703 344.673 216.032 347.474C212.617 351.055 206.405 350.113 202.53 353.19C198.621 356.295 198.606 362.485 200.951 366.892C202.111 369.071 203.799 371.314 203.299 373.73C202.987 375.234 201.876 376.42 200.932 377.634C199.583 379.37 198.486 381.375 198.216 383.557C197.947 385.739 198.617 388.115 200.298 389.531C201.343 390.412 202.935 390.829 203.726 391.969C204.616 393.253 204.866 395.554 205.041 397.067C205.196 398.397 205.212 399.755 205.614 401.032C206.712 404.517 210.559 406.594 214.213 406.595C215.898 406.595 217.748 406.279 219.134 407.237C220.283 408.029 220.751 409.463 221.446 410.673C223.71 414.604 229.218 416.257 233.273 414.22C234.797 413.456 236.205 412.227 237.909 412.201C239.603 412.177 242.791 413.486 244.395 413.207Z" fill="#2C221D"/>
<path d="M268.203 408.851C272.767 409.988 281.414 410.227 287.969 406.086" stroke="black" stroke-width="1.18571" stroke-miterlimit="10"/>
<path d="M255.865 378.457C255.851 373.879 258.875 369.489 263.811 370.355" stroke="black" stroke-width="1.18571" stroke-miterlimit="10"/>
<path d="M272.878 367.053C272.724 365.748 273.704 364.223 275.18 363.473C276.655 362.724 278.49 362.837 279.521 363.677" stroke="black" stroke-width="1.18571" stroke-miterlimit="10"/>
<path d="M252.396 391.688C249.785 388.493 243.409 389.381 241.337 392.675C236.358 400.594 248.42 411.175 255.792 407.318C257.877 406.228 259.93 403.46 258.958 400.892" fill="#E27769"/>
<path d="M245.176 398.605L255.361 399.332" stroke="black" stroke-width="1.18571" stroke-miterlimit="10"/>
<path d="M246.201 390.082C248.335 389.817 250.563 390.238 252.502 391.271" stroke="black" stroke-width="1.18571" stroke-miterlimit="10"/>
<path d="M245.396 406.018C248.37 407.973 252.395 409.352 255.656 407.567C257.918 406.329 259.525 403.652 258.716 400.931" stroke="black" stroke-width="1.18571" stroke-miterlimit="10"/>
<path d="M275.601 386.878C274.944 389.33 275.756 392.552 278.569 393.059C280.679 393.44 282.962 392.141 283.644 390.099" stroke="black" stroke-width="1.18571" stroke-miterlimit="10"/>
<path d="M838.695 247.262H530.996C526.214 247.262 522.339 243.386 522.339 238.605V86.5013H847.351V238.604C847.351 243.386 843.475 247.262 838.695 247.262Z" fill="#D5D8BC"/>
<path d="M838.694 63.4181C843.476 63.4181 847.351 67.2944 847.351 72.0748V238.606C847.351 243.387 843.475 247.262 838.694 247.262H530.995C526.213 247.262 522.338 243.386 522.338 238.606V72.0762C522.338 67.2944 526.215 63.4195 530.995 63.4195L838.694 63.4181ZM838.694 61.3475H530.995C525.08 61.3475 520.268 66.1597 520.268 72.0748V238.606C520.268 244.521 525.08 249.333 530.995 249.333H838.693C844.608 249.333 849.42 244.521 849.42 238.606V72.0762C849.421 66.161 844.609 61.3475 838.694 61.3475Z" fill="white"/>
<path d="M537.709 70.6855C540.445 70.6855 542.664 72.9038 542.664 75.6398C542.664 78.3758 540.445 80.5942 537.709 80.5942C534.973 80.5942 532.755 78.3758 532.755 75.6398C532.755 72.9038 534.973 70.6855 537.709 70.6855ZM537.709 68.6148C533.836 68.6148 530.684 71.7664 530.684 75.6398C530.684 79.5133 533.836 82.6648 537.709 82.6648C541.583 82.6648 544.734 79.5133 544.734 75.6398C544.734 71.7664 541.583 68.6148 537.709 68.6148Z" fill="white"/>
<path d="M556.919 70.6855C559.655 70.6855 561.873 72.9038 561.873 75.6398C561.873 78.3758 559.655 80.5942 556.919 80.5942C554.183 80.5942 551.965 78.3758 551.965 75.6398C551.965 72.9038 554.183 70.6855 556.919 70.6855ZM556.919 68.6148C553.046 68.6148 549.894 71.7664 549.894 75.6398C549.894 79.5133 553.046 82.6648 556.919 82.6648C560.793 82.6648 563.944 79.5133 563.944 75.6398C563.944 71.7664 560.793 68.6148 556.919 68.6148Z" fill="white"/>
<path d="M522.339 86.5013H847.351" stroke="white" stroke-width="1.77856" stroke-miterlimit="10"/>
<path d="M802.972 218.522C796.887 208.356 790.434 197.808 780.439 191.608C770.445 185.407 755.811 185.172 748.35 194.342C741.736 202.47 742.965 214.321 744.549 224.742C737.19 215.347 728.571 206.972 719.003 199.922C711.619 194.482 703.477 189.752 694.51 188.047C685.2 186.276 674.579 188.228 666.941 193.986C656.516 201.843 656.676 214.215 657.699 226.149C645.046 202.165 630.984 178.372 611.504 159.202C606.463 154.241 600.538 149.945 593.724 148.044C589.816 146.955 585.406 146.742 581.902 148.788C576.576 151.895 575.167 158.909 575.015 165.074C574.832 172.512 575.689 179.975 577.555 187.178C574.155 183.525 569.67 180.821 564.77 179.884C553.494 177.725 542.367 186.253 541.723 197.828C541.055 209.869 548.382 221.364 553.979 231.478C556.112 235.333 558.304 239.173 560.718 242.86C561.189 243.579 562.985 247.155 564.075 247.155C564.081 247.155 819.097 247.155 819.097 247.155C813.723 238.171 808.347 227.501 802.972 218.522Z" fill="#B5AE6B"/>
<mask id="mask0_2_1513" style="mask-type:luminance" maskUnits="userSpaceOnUse" x="522" y="63" width="326" height="185">
<path d="M838.695 247.265H530.996C526.214 247.265 522.339 243.389 522.339 238.609V72.0778C522.339 67.296 526.215 63.4212 530.996 63.4212H838.693C843.475 63.4212 847.35 67.2974 847.35 72.0778V238.609C847.352 243.389 843.475 247.265 838.695 247.265Z" fill="white"/>
</mask>
<g mask="url(#mask0_2_1513)">
<path d="M825.289 235.865L739.994 72.3942L715.755 70.9683L696.722 86.5036L647.755 122.106L702.801 283.427L825.289 235.865Z" fill="white"/>
<path d="M665.036 119.754C669.796 123.72 676.425 125.335 682.475 124.003" stroke="black" stroke-width="1.18571" stroke-miterlimit="10"/>
<path d="M688.441 122.106C694.402 120.102 699.691 116.149 703.302 111C706.913 105.851 708.828 99.5332 708.681 93.2454" stroke="black" stroke-width="1.18571" stroke-miterlimit="10"/>
<path d="M802.017 175.087C787.26 146.943 742.974 58.2475 731.29 62.6151C717.884 67.6261 702.804 80.5469 702.804 80.5469C702.804 80.5469 710.028 103.668 710.578 105.86C712.587 113.854 714.653 121.831 716.779 129.795C722.072 149.619 726.787 169.736 733.324 189.198C739.962 208.964 747.317 228.5 755.248 247.783C758.427 255.513 760.981 264.573 767.03 270.624C770.46 274.118 775.26 276.554 780.139 276.125C783.507 275.828 786.602 274.228 789.597 272.66C802.776 265.758 839.51 249.299 839.51 249.299C839.51 249.299 820.629 210.585 802.017 175.087Z" fill="#4C4139"/>
<path d="M726.769 283.259C723.183 270.195 717.043 258.173 712.496 245.474C706.547 228.861 701.261 212.017 695.124 195.469C685.762 170.228 672.486 135.324 662.324 110.395C662.324 110.395 643.692 121.084 639.934 123.675C636.177 126.267 636.993 132.434 636.993 132.434C651.823 187.74 696.739 313.35 696.739 313.35C702.057 310.539 715.245 303.13 720.563 300.32C727.571 296.618 728.785 290.599 726.769 283.259Z" fill="#4C4139"/>
<path d="M643.63 121.351C660.855 147.812 674.266 169.359 692.219 195.333" stroke="black" stroke-width="1.18571" stroke-miterlimit="10"/>
<path d="M726.183 69.2946C729.757 104.397 731.936 139.641 732.716 174.917" stroke="black" stroke-width="1.18571" stroke-miterlimit="10"/>
</g>
<path d="M547.385 256.681C543.792 259.422 540.097 262.026 536.31 264.491C532.656 266.868 528.745 268.886 525.158 271.343C524.273 271.949 523.446 272.635 522.62 273.318C519.612 275.811 516.58 278.331 514.19 281.421C513.873 281.833 513.558 282.262 513.13 282.556C512.702 282.852 512.125 282.99 511.656 282.766C511.168 282.533 510.921 281.985 510.78 281.463C510.197 279.296 510.787 276.979 511.674 274.917C512.244 273.589 512.935 272.32 513.536 271.006C514.034 269.918 514.693 268.767 514.705 267.561C505.039 269.935 496.585 275.651 487.481 279.674C485.618 280.498 481.822 280.321 481.425 278.724C480.902 276.613 494.371 269.553 500.823 264.503C496.323 265.983 491.552 267.522 487.353 269.738C484.442 271.273 481.337 272.485 478.071 272.988C476.239 273.27 472.102 273.469 473.416 270.407C473.804 269.504 474.628 268.875 475.432 268.307C481.656 263.904 488.758 261.216 495.211 257.155C488.423 258.679 481.851 262.282 474.944 261.447C474.272 261.365 473.554 261.216 473.09 260.722C472.385 259.97 472.251 259.057 472.911 258.263C473.571 257.471 474.561 257.047 475.513 256.651C482.495 253.747 489.809 250.475 496.791 247.571C493.219 247.965 489.787 249.15 486.292 249.99C482.796 250.831 479.09 251.324 475.635 250.334C474.522 250.015 473.227 249.066 473.659 247.993C473.868 247.474 474.416 247.19 474.919 246.948C483.493 242.862 492.067 238.776 500.64 234.688C503.044 233.543 505.451 232.396 507.898 231.341C513.211 229.052 518.348 226.435 523.676 224.152C529.271 221.755 534.895 219.432 540.55 217.179" fill="#D16159"/>
<path d="M514.54 267.507C517.146 266.814 519.777 266.214 522.426 265.706" stroke="black" stroke-width="1.18571" stroke-miterlimit="10"/>
<path d="M500.462 264.433C504.124 262.686 507.879 261.13 511.704 259.776" stroke="black" stroke-width="1.18571" stroke-miterlimit="10"/>
<path d="M495.212 257.021C498.198 255.724 501.185 254.425 504.171 253.127" stroke="black" stroke-width="1.18571" stroke-miterlimit="10"/>
<path d="M493.431 248.776C495.629 247.976 497.773 247.029 499.842 245.942" stroke="black" stroke-width="1.18571" stroke-miterlimit="10"/>
<path d="M639.935 123.675C633.552 127.927 627.239 132.675 623.189 137.08C616.694 144.145 578.504 190.431 578.504 190.431C578.504 190.431 539.386 214.023 516.966 227.051L541.48 266.988C541.48 266.988 586.929 250.648 610.108 234.366C631.178 219.565 671.514 171.069 671.514 171.069" fill="#4C4139"/>
<path d="M655.918 190.44L643.632 152.232" stroke="black" stroke-width="1.18571" stroke-miterlimit="10"/>
<path d="M537.597 214.91L564.795 257.163" stroke="black" stroke-width="1.18571" stroke-miterlimit="10"/>
<path d="M534.259 255.222L556.822 244.775" stroke="black" stroke-width="1.18571" stroke-miterlimit="10"/>
<path d="M549.367 244.252C549.48 245.287 548.733 246.217 547.699 246.332C546.664 246.445 545.734 245.698 545.619 244.663C545.506 243.628 546.253 242.697 547.288 242.583C548.322 242.47 549.252 243.216 549.367 244.252Z" stroke="black" stroke-width="1.18571" stroke-miterlimit="10"/>
<path d="M538.346 249.244C539.387 249.244 540.231 248.4 540.231 247.359C540.231 246.317 539.387 245.473 538.346 245.473C537.304 245.473 536.46 246.317 536.46 247.359C536.46 248.4 537.304 249.244 538.346 249.244Z" stroke="black" stroke-width="1.18571" stroke-miterlimit="10"/>
<path d="M578.24 191.008C578.208 190.754 578.176 190.5 578.145 190.247C583.353 188.686 588.325 186.336 592.841 183.305" stroke="black" stroke-width="1.18571" stroke-miterlimit="10"/>
<path d="M596.64 145.98C604.033 137.087 613.083 129.577 623.186 123.95" stroke="black" stroke-width="1.18571" stroke-miterlimit="10"/>
<path d="M602.598 125.664C609.594 120.457 617.243 116.128 625.31 112.812" stroke="black" stroke-width="1.18571" stroke-miterlimit="10"/>
<path d="M677.414 52.9795L682.876 69.1568L702.365 88.0106C702.365 88.0106 702.873 99.228 691.848 110.988C680.906 122.658 669.051 114.825 669.051 114.825L654.902 94.021" fill="#D16159"/>
<path d="M631.79 95.1433C629.548 87.9609 626.721 72.467 626.938 66.5671C627.122 61.5713 628.615 56.6832 631.906 52.8208C636.143 47.8471 646.104 49.6292 652.465 49.0246C662.909 48.0321 669.435 60.4076 672.379 69.2796C674.64 76.0948 675.716 83.1115 673.408 90.0633C669.653 101.366 657.596 112.791 644.84 109.7C637.91 108.02 633.962 102.105 631.79 95.1433Z" fill="#D16159"/>
<path d="M687.278 50.9539C685.602 49.1648 683.299 47.7609 682.553 45.4253C682.14 44.1304 681.498 40.2555 681.08 38.9635C678.749 31.7549 672.704 29.3419 665.835 30.5263C665.102 23.6324 657.789 22.9671 651.785 22.898C649.283 22.8691 646.739 22.6247 644.499 21.4279C642.13 20.162 639.982 18.3702 637.215 18.1066C634.747 17.8719 632.206 18.685 630.156 20.0336C623.036 24.7147 621.002 33.7717 612.281 36.5063C609.525 37.3705 606.646 37.6258 604.267 39.4342C602.492 40.7829 601.171 42.8011 600.921 45.018C600.565 48.1806 602.655 50.1049 604.812 52.0292C607.329 54.2738 608.796 57.134 608.594 60.5492C608.471 62.6171 607.917 64.6312 607.586 66.6756C606.644 72.4968 608.504 77.9992 613.379 81.5235C614.408 82.2661 615.799 82.9619 619.564 83.7791C622.217 84.3547 629.1 83.3608 629.1 83.3608C629.1 83.3608 627.401 73.459 627.432 69.6048C627.463 65.9384 628.581 62.5219 630.726 59.5926C632.556 57.0926 636.558 56.2133 639.54 56.3472C644.006 56.5474 648.271 59.0087 652.711 58.4882C654.555 58.2715 656.308 57.4943 657.756 56.3362C663.728 60.2027 669.91 65.8873 671.278 72.8185C671.347 73.1705 672.225 77.2745 671.915 77.3394C677.035 76.2626 683.486 75.8485 685.787 70.2578C686.581 68.3293 686.181 66.3015 686.781 64.3468C687.278 62.7275 688.726 61.5459 689.401 59.9915C690.705 56.9836 689.517 53.3448 687.278 50.9539Z" fill="#2C221D"/>
<path d="M665.994 71.969C666.259 67.5144 672.41 64.2538 676.313 65.8289C685.695 69.6168 681.825 86.5325 672.919 87.8219C670.4 88.1863 666.848 87.0612 666.074 84.1941" fill="#D16159"/>
<path d="M676.71 73.4559L668.243 80.5457" stroke="black" stroke-width="1.18571" stroke-miterlimit="10"/>
<path d="M670.407 66.6386C668.369 67.7595 666.682 69.5389 665.637 71.6716" stroke="black" stroke-width="1.18571" stroke-miterlimit="10"/>
<path d="M681.209 80.0956C679.841 83.6916 677.186 87.4519 673.197 87.953C670.428 88.3009 667.324 86.9729 666.31 84.0754" stroke="black" stroke-width="1.18571" stroke-miterlimit="10"/>
<path d="M662.851 105.703C662.851 105.703 667.408 102.808 670.406 96.4334" stroke="black" stroke-width="1.18571" stroke-miterlimit="10"/>
<path d="M639.394 78.0036C639.816 81.9765 640.254 85.948 640.707 89.9181C640.769 90.4661 640.85 91.0542 641.23 91.4559C642.728 93.0392 646.162 92.2786 647.758 91.3303" stroke="black" stroke-width="1.18571" stroke-miterlimit="10"/>
<path d="M651.501 92.9589L644.633 96.9704C644.633 96.9704 647.29 102.064 649.95 101.069C654.905 99.2178 651.501 92.9589 651.501 92.9589Z" fill="white"/>
<path d="M642.891 69.4175C643.595 67.9722 645.042 67.0017 646.571 66.5075C649.157 65.6724 652.115 66.0824 654.376 67.5898" stroke="black" stroke-width="1.18571" stroke-miterlimit="10"/>
<path d="M626.844 75.1792C627.092 73.6649 627.961 72.5192 628.977 71.8303C630.693 70.6666 632.903 70.679 634.807 71.8607" stroke="black" stroke-width="1.18571" stroke-miterlimit="10"/>
<path d="M651.978 75.3394C652.33 76.822 651.682 78.2452 650.532 78.5171C649.383 78.7891 648.165 77.809 647.814 76.3264C647.462 74.8438 648.11 73.4206 649.26 73.1487C650.41 72.8767 651.626 73.8568 651.978 75.3394Z" fill="black"/>
<path d="M636.142 80.0532C636.494 81.5358 635.847 82.959 634.697 83.2309C633.547 83.5043 632.33 82.5228 631.979 81.0402C631.627 79.5576 632.274 78.1344 633.424 77.8625C634.573 77.5905 635.79 78.5706 636.142 80.0532Z" fill="black"/>
<path d="M631.965 58.2685C629.011 59.856 627.726 63.3264 625.73 66.021C622.503 70.3763 616.908 72.8569 611.511 72.3227" stroke="#635149" stroke-width="1.18571" stroke-miterlimit="10"/>
<path d="M658.26 55.9383C660.935 53.4688 662.856 50.193 663.703 46.6536" stroke="#635149" stroke-width="1.18571" stroke-miterlimit="10"/>
<path d="M908.99 421.317H677.638C672.856 421.317 668.982 417.441 668.982 412.66V248.297H917.648V412.66C917.646 417.442 913.772 421.317 908.99 421.317Z" fill="#F9D4BB"/>
<path d="M908.989 225.214C913.771 225.214 917.646 229.09 917.646 233.87V412.661C917.646 417.443 913.769 421.317 908.989 421.317H677.638C672.856 421.317 668.981 417.441 668.981 412.661V233.87C668.981 229.089 672.857 225.214 677.638 225.214H908.989ZM908.989 223.143H677.638C671.722 223.143 666.91 227.955 666.91 233.87V412.661C666.91 418.576 671.722 423.388 677.638 423.388H908.989C914.904 423.388 919.716 418.576 919.716 412.661V233.87C919.716 227.955 914.904 223.143 908.989 223.143Z" fill="white"/>
<path d="M689.309 237.429C689.309 240.165 687.091 242.384 684.355 242.384C681.619 242.384 679.401 240.165 679.401 237.429C679.401 234.693 681.619 232.475 684.355 232.475C687.091 232.475 689.309 234.693 689.309 237.429Z" stroke="white" stroke-width="1.77856" stroke-miterlimit="10"/>
<path d="M708.515 237.429C708.515 240.165 706.296 242.384 703.56 242.384C700.824 242.384 698.606 240.165 698.606 237.429C698.606 234.693 700.824 232.475 703.56 232.475C706.296 232.475 708.515 234.693 708.515 237.429Z" stroke="white" stroke-width="1.77856" stroke-miterlimit="10"/>
<path d="M668.982 248.297H917.646" stroke="white" stroke-width="1.77856" stroke-miterlimit="10"/>
<path d="M853.546 354.699C847.852 353.702 846.242 369.013 848.973 374.108C841.474 363.385 831.983 346.96 824.483 336.237C816.072 324.209 806.021 309.229 790.852 305.314C777.189 301.787 770.062 313.686 769.848 325.835C769.643 337.467 770.813 349.201 772.968 360.622C775.316 373.075 778.365 387.259 785.144 398.131C777.938 386.577 766.406 382.67 753.52 383.743C747.518 384.243 741.278 386.262 737.489 390.943C731.427 398.431 733.701 412.038 736.284 421.32C741.919 421.32 747.555 421.32 753.19 421.32C783.163 421.32 901.899 421.369 901.899 421.369C901.899 421.369 872.025 357.935 853.546 354.699Z" fill="#EF9748"/>
<path d="M681.333 333.13C656.627 333.497 632.138 328.273 608.504 321.068C584.87 313.865 541.81 298.049 541.81 298.049L529.515 335.172C529.515 335.172 593.169 375.496 677.876 382.383" fill="#E27769"/>
<path d="M734.251 343.211C717.786 329.241 682.113 330.239 671.885 330.638C661.658 331.037 643.43 328.017 643.43 328.017L636.72 383.944C636.72 383.944 674.595 390.3 695.667 391.84" fill="#2C221D"/>
<path d="M687.846 356.628C690.431 363.919 689.251 374.646 689.28 382.382C689.306 389.283 691.732 393.117 692.75 399.941C693.969 408.098 698.597 413.925 703.478 421.316H808.376L802.85 363.156L788.571 342.52L758.421 334.482L690.355 352.383" fill="#2C221D"/>
<path d="M720.78 342.52C719.734 346.212 718.972 350.355 719.607 354.182C720.351 358.665 723.195 361.488 727.252 363.156" stroke="#6D574E" stroke-width="1.18571" stroke-miterlimit="10"/>
<path d="M732.409 364.39C751 367.721 770.562 354.433 772.43 337.517" stroke="#6D574E" stroke-width="1.18571" stroke-miterlimit="10"/>
<path d="M872.271 414.61C870.761 410.227 867.924 406.44 865.007 402.838C856.987 392.935 848.008 383.807 838.239 375.623L803.136 407.576L824.858 428.633L799.489 474.616L833.14 484.22C833.14 484.22 858.893 455.779 868.748 439.925C873.585 432.143 875.28 423.344 872.271 414.61Z" fill="#E27769"/>
<path d="M806.202 464.316C806.202 464.316 791.485 485.495 789.998 489.318C788.662 492.752 787.933 497.05 787.408 500.709C785.962 510.796 791.369 521.166 795.445 526.065C795.905 526.617 796.586 526.973 797.269 527.1C798.78 527.382 799.386 526.596 799.353 524.813C800.179 525.935 801.003 527.056 801.828 528.178C802.169 528.642 802.527 529.121 803.016 529.363C803.953 529.827 805.125 529.261 805.844 528.344C806.563 527.427 806.931 526.235 807.28 525.079C808.154 526.344 809.511 527.67 810.819 526.896C812.128 526.122 813.258 523.322 812.966 521.714C813.395 523.127 815.27 523.166 816.294 522.138C817.317 521.109 817.692 519.498 817.998 517.996C818.769 514.193 819.495 510.271 821.357 506.949C822.598 504.733 824.287 502.896 825.758 500.869C830.551 494.271 832.923 485.86 834.47 477.575" fill="#E27769"/>
<path d="M815.857 496.959C815.194 498.427 814.53 499.894 813.867 501.36C813.329 502.551 812.789 503.746 812.356 504.982C810.425 510.494 810.745 516.798 813.223 522.036" stroke="black" stroke-width="1.18571" stroke-miterlimit="10"/>
<path d="M804.777 496.411C803.427 503.079 802.878 511.096 803.839 516.11C804.461 519.358 805.879 522.446 807.615 525.231" stroke="black" stroke-width="1.18571" stroke-miterlimit="10"/>
<path d="M795.076 493.908C795.076 493.908 794.214 498.826 794.009 501.606C793.36 510.444 794.531 518.979 799.346 525.531" stroke="black" stroke-width="1.18571" stroke-miterlimit="10"/>
<path d="M538.802 335.798C536.154 335.542 533.505 335.285 530.857 335.028C528.487 334.799 526.096 334.564 523.83 333.837C522.317 333.351 520.882 332.654 519.455 331.958C513.574 329.095 510.564 328.238 504.938 324.923C501.707 323.02 498.401 321.225 494.955 319.736C491.58 318.277 488.078 317.491 484.961 315.519C484.69 315.347 484.41 315.154 484.286 314.86C484.19 314.634 484.199 314.377 484.233 314.133C484.956 309.047 495.321 310.211 499.352 311.337C500.566 311.677 501.828 312.084 503.065 311.833C503.148 310.215 502.436 308.666 501.647 307.251C499.325 303.088 495.93 299.771 492.864 296.151C490.028 292.802 487.155 289.456 484.542 285.928C482.095 282.624 479.576 275.429 481.497 274.552C483.419 273.674 482.392 275.427 483.011 275.507C481.772 274.743 482.244 271.691 483.134 270.489C484.025 269.288 486.494 271.107 487.35 272.272C486.457 271.157 486.759 268.625 487.672 268.173C488.998 267.513 490.571 268.402 491.802 269.147C493.033 269.893 494.221 270.798 495.656 271.059C495.295 270.152 495.078 269.184 495.014 268.202C495.714 267.348 497.068 267.789 498.013 268.302C517.217 278.765 533.604 294.611 554.024 303.935" fill="#E27769"/>
<path d="M499.018 303.361C501.174 306.453 502.628 310.174 503.756 314.736" stroke="black" stroke-width="1.18571" stroke-miterlimit="10"/>
<path d="M483.072 274.433C485.621 277.604 489.027 279.8 491.999 282.518C496.73 286.843 501.228 291.409 505.8 295.898" stroke="black" stroke-width="1.18571" stroke-miterlimit="10"/>
<path d="M487.335 271.968C488.794 273.348 490.346 274.63 491.976 275.803C493.724 277.059 495.558 278.19 497.362 279.363C502.52 282.716 507.44 286.435 512.074 290.484" stroke="black" stroke-width="1.18571" stroke-miterlimit="10"/>
<path d="M496.333 271.463C497.955 273.013 500.009 274.014 501.99 275.069C508.195 278.369 514.005 282.414 519.253 287.09" stroke="black" stroke-width="1.18571" stroke-miterlimit="10"/>
<path d="M539.574 337.006C539.574 337.006 528.721 335.535 524.29 334.366" stroke="black" stroke-width="1.18571" stroke-miterlimit="10"/>
<path d="M779.749 340.216C787.223 340.938 794.698 341.637 801.811 344.322C810.799 347.715 818.611 354.092 825.968 360.612C833.653 367.423 841.493 376.694 848.973 383.802L810.637 417.348L783.492 390.896" fill="#2C221D"/>
<path d="M824.861 428.633C824.861 428.633 830.531 421.373 836.28 417.346" stroke="black" stroke-width="1.18571" stroke-miterlimit="10"/>
<path d="M799.48 406.476L839.456 374.106" stroke="#6D574E" stroke-width="1.18571" stroke-miterlimit="10"/>
<path d="M651.377 386.277L657.182 329.859" stroke="#6D574E" stroke-width="1.18571" stroke-miterlimit="10"/>
<path d="M687.846 375.625C687.846 375.625 690.496 387.667 691.222 392.831" stroke="#6D574E" stroke-width="1.18571" stroke-miterlimit="10"/>
<path d="M782.134 390.794C790.442 397.208 810.636 417.347 810.636 417.347" stroke="#6D574E" stroke-width="1.18571" stroke-miterlimit="10"/>
<path d="M739.487 300.191L757.352 307.432L756.302 319.342L765.309 336.748C765.309 336.748 760.913 353.163 741.192 357.25C724.541 360.701 724.918 349.956 724.918 349.956L716.988 327.067" fill="#E27769"/>
<path d="M701.748 309.361C704.386 300.431 705.814 294.949 709.187 288.468C712.044 282.981 717.034 275.03 722.763 272.459C730.138 269.148 738.574 273.21 746.008 275.909C758.212 280.343 761.02 294.775 759.602 306.256C758.513 315.077 753.368 319.429 747.097 325.974C738.903 334.529 718.736 341.826 708.315 336.493C700.52 332.503 698.954 318.818 701.748 309.361Z" fill="#E27769"/>
<path d="M829.356 363.337C834.159 361.759 836.519 356.109 836.251 352.095C835.821 345.63 832.8 342.297 832.305 338.303C831.982 335.702 832.755 333.07 832.534 330.459C832.171 326.148 829.043 322.395 825.179 320.45C821.315 318.505 816.82 318.154 812.512 318.539C809.209 318.835 805.889 319.539 802.605 319.071C799.862 318.68 797.293 317.487 794.902 316.085C790.675 313.606 786.818 310.378 784.096 306.303C779.468 299.374 778.481 290.657 774.912 283.127C773.113 279.334 770.616 275.884 767.627 272.94C760.366 265.786 753.453 263.137 743.157 262.795C736.106 262.56 726.295 263.502 720.899 270.078C720.899 270.078 710.47 270.346 705.495 275.598C699.59 281.834 700.013 290.859 705.172 298.052C707.838 293.678 710.107 289.051 714.01 285.688C713.56 286.397 713.775 287.393 714.352 288.003C714.929 288.613 715.786 288.889 716.624 288.957C718.855 289.138 720.964 288.026 722.926 286.948C722.263 288.717 721.982 290.628 722.107 292.513C722.133 292.91 722.189 293.334 722.451 293.634C722.749 293.976 723.239 294.069 723.691 294.107C726.765 294.365 729.927 292.887 731.703 290.363C730.862 292.651 730.128 295.521 731.821 297.272C733.018 298.511 735.043 298.602 736.638 297.953C738.232 297.304 739.498 296.062 740.72 294.848C740.132 295.432 740.905 298.727 741.048 299.488C741.363 301.154 741.874 302.772 742.441 304.367C744.183 309.268 746.33 314.045 749.12 318.444C751.999 322.986 756.114 326.43 759.057 330.856C760.922 333.661 762.499 336.732 765.006 338.982C768.087 341.747 772.334 343.827 776.383 344.652C780.462 345.483 784.681 345.106 788.807 344.97C804.058 344.473 815.621 352.11 829.356 363.337Z" fill="#893D33"/>
<path d="M793.777 264.572C792.899 262.403 791.614 260.416 789.967 258.898C784.022 253.425 771.061 253.78 766.629 261.216C764.194 265.304 765.379 270.562 767.226 274.946L770.867 282.936C775.945 285.695 782.369 285.813 787.544 283.242C791.868 281.096 794.919 277.134 795.134 272.224C795.246 269.72 794.772 267.029 793.777 264.572Z" fill="#893D33"/>
<path d="M740.866 310.923C742.103 307.233 748.024 305.888 750.95 308.101C757.988 313.425 750.88 326.785 743.089 325.844C740.884 325.577 738.151 323.823 738.151 321.233" fill="#E27769"/>
<path d="M749.548 314.61L740.807 318.652" stroke="black" stroke-width="1.18571" stroke-miterlimit="10"/>
<path d="M745.793 307.438C743.822 307.917 741.997 309.033 740.632 310.59" stroke="black" stroke-width="1.18571" stroke-miterlimit="10"/>
<path d="M751.826 321.226C749.857 323.943 746.767 326.504 743.294 326.018C740.884 325.681 738.573 323.856 738.378 321.186" stroke="black" stroke-width="1.18571" stroke-miterlimit="10"/>
<path d="M721.044 338.781C721.044 338.781 729.25 338.39 737.559 332.778" stroke="black" stroke-width="1.18571" stroke-miterlimit="10"/>
<path d="M712.427 304.866C711.134 307.128 709.784 309.454 707.695 311.012C707.195 311.385 706.653 311.715 706.247 312.187C705.664 312.863 705.416 313.814 705.593 314.69C705.769 315.565 706.367 316.345 707.166 316.744" stroke="black" stroke-width="1.18571" stroke-miterlimit="10"/>
<path d="M708.745 322.022C710.056 323.112 712.019 323.539 713.572 322.707C715.534 321.655 715.574 319.15 715.64 317.198" stroke="black" stroke-width="1.18571" stroke-miterlimit="10"/>
<path d="M721.997 300.019C723.431 299.718 724.933 299.653 726.359 299.99C727.787 300.327 729.135 301.085 730.046 302.233C731.203 303.691 731.564 305.608 731.887 307.44" stroke="black" stroke-width="1.18571" stroke-miterlimit="10"/>
<path d="M706.028 294.567C707.392 293.589 709.305 293.525 710.815 294.257C712.325 294.99 713.427 296.442 713.902 298.052" stroke="black" stroke-width="1.18571" stroke-miterlimit="10"/>
<path d="M724.407 308.269C723.846 309.44 722.708 310.061 721.863 309.657C721.02 309.252 720.791 307.975 721.351 306.805C721.913 305.634 723.051 305.013 723.895 305.418C724.739 305.822 724.968 307.099 724.407 308.269Z" fill="black"/>
<path d="M708.9 303.167C708.339 304.338 707.2 304.959 706.355 304.554C705.512 304.15 705.283 302.873 705.843 301.702C706.404 300.532 707.543 299.91 708.387 300.315C709.232 300.719 709.461 301.996 708.9 303.167Z" fill="black"/>
<path d="M869.734 463.264C878.146 454.712 884.107 443.775 886.736 432.072" stroke="black" stroke-width="1.18571" stroke-miterlimit="10"/>
<path d="M889 458.499C891.544 453.481 893.167 447.998 893.767 442.404" stroke="black" stroke-width="1.18571" stroke-miterlimit="10"/>
<path d="M724.34 190.372C724.34 190.372 709.971 196.962 700.324 201.336C694.867 203.809 685.723 210.576 682.6 215.725C678.627 222.275 677.589 230.376 678.041 237.064C678.342 241.49 680.366 246.502 683.331 251.327C685.284 254.504 687.367 257.827 689.187 257.395C691.005 256.964 690.351 252.51 690.351 252.504C690.356 252.773 692.505 256.999 693.001 257.336C693.665 257.787 694.451 258.178 695.137 257.819C696.067 257.33 696.699 256.797 697.149 255.847C697.529 255.044 697.559 254.21 697.638 253.314C697.71 252.501 697.642 250.54 697.601 249.713C698.002 250.605 698.388 253.386 699.15 253.24C699.912 253.092 701.155 252.456 701.839 251.622C703.165 250.003 703.868 247.976 704.547 245.995C704.554 246.474 704.562 246.967 704.743 247.412C704.923 247.856 705.315 248.248 705.794 248.284C706.397 248.328 708.855 246.534 709.213 246.048C710.762 243.945 711.339 241.132 712.458 238.773C713.393 236.804 714.307 235.41 715.654 233.698C716.883 232.137 718.759 230.206 720.549 229.266C724.198 227.351 726.438 226.829 730.171 225.065C733.317 223.579 736.398 221.741 738.572 218.962" fill="#D16159"/>
<path d="M704.222 246.824C704.5 243.68 704.883 240.547 705.373 237.43C705.7 235.352 706.08 233.259 706.91 231.327C708.27 228.16 710.738 225.626 713.155 223.169" stroke="black" stroke-width="1.18571" stroke-miterlimit="10"/>
<path d="M697.932 250.404C696.71 245.166 696.841 239.72 696.979 234.342C697.018 232.855 697.058 231.356 697.413 229.912C698.027 227.42 699.537 225.259 701.017 223.162" stroke="black" stroke-width="1.18571" stroke-miterlimit="10"/>
<path d="M690.501 253.546C688.82 248.333 687.128 243.064 686.662 237.606C686.574 236.561 686.53 235.511 686.567 234.461C686.707 230.547 687.981 226.723 689.909 223.312" stroke="black" stroke-width="1.18571" stroke-miterlimit="10"/>
<path d="M736.563 112.468L761.847 160.168L705.42 198.809L742.555 228.057C742.555 228.057 805.872 207.446 823.118 197.221C836.658 189.194 842.469 168.345 816.384 134.34C790.298 100.335 772.29 80.1678 766.941 74.497C755.429 62.2927 741.733 57.2237 728.968 63.6496" fill="#4C4139"/>
<path d="M736.566 112.469L761.85 160.168L705.425 198.808" stroke="black" stroke-width="1.18571" stroke-miterlimit="10"/>
<path d="M738.024 214.905C738.024 215.946 737.18 216.791 736.139 216.791C735.098 216.791 734.253 215.948 734.253 214.905C734.253 213.865 735.098 213.02 736.139 213.02C737.181 213.02 738.024 213.865 738.024 214.905Z" stroke="black" stroke-width="1.18571" stroke-miterlimit="10"/>
<path d="M747.783 210.92C748.825 210.92 749.669 210.076 749.669 209.034C749.669 207.993 748.825 207.149 747.783 207.149C746.742 207.149 745.898 207.993 745.898 209.034C745.898 210.076 746.742 210.92 747.783 210.92Z" stroke="black" stroke-width="1.18571" stroke-miterlimit="10"/>
<path d="M725.342 214.499C725.549 214.661 749.666 202.505 749.666 202.505" stroke="black" stroke-width="1.18571" stroke-miterlimit="10"/>
<path d="M726.661 184.265C726.9 184.101 770.019 218.725 770.019 218.725" stroke="black" stroke-width="1.18571" stroke-miterlimit="10"/>
<path d="M760.471 160.643C765.765 158.576 771.086 156.348 776.743 155.497C782.79 154.587 788.938 154.901 795.019 155.216" stroke="black" stroke-width="1.18571" stroke-miterlimit="10"/>
<path d="M742.557 228.056L815.64 201.493" stroke="black" stroke-width="1.18571" stroke-miterlimit="10"/>
<path d="M755.341 51.7414C740.736 38.02 725.819 24.3689 708.553 14.1979C676.586 -4.63251 631.969 -1.71843 609.916 11.9823C592.989 22.4984 584.068 35.5959 573.195 51.8146C559.587 72.1165 545.316 93.9563 522.891 103.676C511.961 108.414 499.941 109.837 488.25 112.126C476.559 114.414 464.605 117.843 455.649 125.699C446.692 133.554 441.589 146.89 446.427 157.778C450.228 166.329 459.587 171.709 468.942 171.974C478.296 172.24 487.417 167.898 494.15 161.4C511.335 144.82 519.334 101.201 487.592 88.6444" stroke="#ED725A" stroke-width="1.77856" stroke-miterlimit="10"/>
<path d="M61.8487 347.449C63.8683 357.028 68.9745 367.224 75.8767 375.09C84.862 385.33 103.187 391.957 111.067 377.068C114.732 370.144 116.56 358.939 107.826 353.983C107.206 353.631 106.51 353.315 105.759 353.307C104.071 353.289 102.951 354.756 102.453 356.096C100.119 362.377 103.876 369.165 108.948 374.21C111.301 376.552 114.043 378.734 117.437 379.899C120.831 381.064 124.987 381.052 127.948 379.246C132.553 376.437 133.765 370.25 133.428 365.82" stroke="#8F96DB" stroke-width="1.77856" stroke-miterlimit="10"/>
<path d="M42.5391 95.2362C50.6657 84.9892 61.6084 75.7335 73.9053 70.9903C80.559 68.4241 89.2516 67.5034 96.2477 68.8921C99.7402 69.585 103.797 70.6866 105.931 73.8271C108.183 77.1401 105.555 83.2803 110.006 85.1576C111.149 85.6394 112.45 85.5235 113.677 85.3385C117.535 84.7587 121.29 83.5964 125.15 83.029C129.011 82.4631 133.121 82.539 136.596 84.3128C140.072 86.0867 142.715 89.887 142.195 93.755C141.993 95.2693 141.334 96.7684 141.614 98.2703C142.084 100.783 144.93 102.097 147.476 102.337C152.746 102.833 157.757 102.661 162.238 106.035C165.526 108.51 167.415 112.937 165.732 116.491" stroke="#FFDD99" stroke-width="1.77856" stroke-miterlimit="10"/>
<path d="M386.862 85.4915C388.911 80.9333 391.206 76.3627 394.782 72.8716C398.357 69.3805 403.461 67.1028 408.365 68.0567C410.901 68.5509 413.298 69.8706 415.88 69.8167C419.434 69.7422 422.475 67.0089 424.073 63.834C425.672 60.659 426.137 57.0574 426.786 53.5636C427.821 47.9839 429.5 42.2813 433.317 38.0821C437.134 33.8828 443.583 31.6313 448.684 34.1216" stroke="#FFDD99" stroke-width="1.77856" stroke-miterlimit="10"/>
<path d="M146.329 550.375C147.748 541.909 142.036 533.897 133.57 532.478C125.105 531.059 117.092 536.771 115.673 545.237C114.255 553.702 119.967 561.714 128.432 563.133C136.897 564.552 144.91 558.84 146.329 550.375Z" stroke="#909DF4" stroke-width="1.77856" stroke-miterlimit="10"/>
<path d="M395.536 30.6694C402.497 30.6694 408.14 25.026 408.14 18.0647C408.14 11.1033 402.497 5.45997 395.536 5.45997C388.574 5.45997 382.931 11.1033 382.931 18.0647C382.931 25.026 388.574 30.6694 395.536 30.6694Z" stroke="#8F96DB" stroke-width="1.77856" stroke-miterlimit="10"/>
<path d="M844.054 501.618L852.41 556.653L885.248 532.464L844.054 501.618Z" fill="#FFDD99"/>
<path d="M17.3513 441.231L39.5666 416.043L1.61567 417.404L17.3513 441.231Z" stroke="#8F96DB" stroke-width="1.77856" stroke-miterlimit="10"/>
<path d="M52.8513 503.606C57.8183 503.606 61.8449 499.58 61.8449 494.613C61.8449 489.646 57.8183 485.619 52.8513 485.619C47.8843 485.619 43.8578 489.646 43.8578 494.613C43.8578 499.58 47.8843 503.606 52.8513 503.606Z" fill="#FFDD99"/>
<path d="M72.0692 119.238L50.4475 166.416L116.515 156.834L72.0692 119.238Z" fill="#ED725A"/>
<path d="M29.6684 236.785C29.6684 239.8 27.225 242.243 24.2101 242.243C21.1953 242.243 18.7519 239.8 18.7519 236.785C18.7519 233.77 21.1953 231.327 24.2101 231.327C27.225 231.327 29.6684 233.77 29.6684 236.785Z" fill="#909DF4"/>
<path d="M770.49 21.6009C770.49 24.6157 768.047 27.0591 765.032 27.0591C762.017 27.0591 759.574 24.6157 759.574 21.6009C759.574 18.586 762.017 16.1427 765.032 16.1427C768.047 16.1427 770.49 18.586 770.49 21.6009Z" fill="#ED725A"/>
<path d="M870.866 498.196C874.937 496.525 880.199 496.848 883.883 499.322C887.135 501.504 888.836 505.61 892.757 506.89C898.507 508.767 903.581 503.414 909.127 503.046C913.924 502.729 917.792 505.98 919.667 510.167C921.272 513.75 921.579 517.759 921.864 521.675" stroke="#8F96DB" stroke-width="1.77856" stroke-miterlimit="10"/>
<path d="M828.628 123.879C830.623 118.919 835.878 115.465 841.223 115.602C843.943 115.671 846.701 116.573 849.335 115.892C857.529 113.77 856.847 99.5003 864.943 97.0294C870.555 95.3176 876.655 100.752 882.148 98.6914C886.873 96.9176 888.031 90.9679 889.527 86.1488C893.572 73.1204 905.546 62.9148 919.051 60.9836" stroke="#8F96DB" stroke-width="1.77856" stroke-miterlimit="10"/>
<path d="M766.168 410.33C770.95 410.33 774.825 414.207 774.825 418.987V572.273C774.825 577.055 770.949 580.929 766.168 580.929H517.882C513.1 580.929 509.225 577.053 509.225 572.273V418.989C509.225 414.207 513.101 410.332 517.882 410.332H766.168M766.168 408.26H517.882C511.966 408.26 507.154 413.072 507.154 418.987V572.273C507.154 578.188 511.966 583 517.882 583H766.168C772.083 583 776.895 578.188 776.895 572.273V418.989C776.897 413.073 772.085 408.26 766.168 408.26Z" fill="white"/>
<path d="M766.167 580.929H517.88C513.098 580.929 509.223 577.053 509.223 572.272V433.413H774.825V572.272C774.825 577.053 770.948 580.929 766.167 580.929Z" fill="#C5B3DD"/>
<path d="M529.553 422.551C529.553 425.287 527.335 427.505 524.599 427.505C521.863 427.505 519.645 425.287 519.645 422.551C519.645 419.815 521.863 417.596 524.599 417.596C527.335 417.596 529.553 419.815 529.553 422.551Z" stroke="white" stroke-width="1.77856" stroke-miterlimit="10"/>
<path d="M548.756 422.551C548.756 425.287 546.538 427.505 543.802 427.505C541.066 427.505 538.847 425.287 538.847 422.551C538.847 419.815 541.066 417.596 543.802 417.596C546.538 417.596 548.756 419.815 548.756 422.551Z" stroke="white" stroke-width="1.77856" stroke-miterlimit="10"/>
<path d="M509.223 433.413H774.825" stroke="white" stroke-width="1.77856" stroke-miterlimit="10"/>
<path d="M737.56 547.778C724.347 533.146 708.995 525.908 701.189 527.672C689.705 530.269 691.793 559.577 692.114 571.345C686.569 564.931 679.695 559.671 672.055 555.995C666.3 553.225 659.748 551.334 653.544 552.846C647.339 554.357 641.874 560.191 642.602 566.536C628.149 545.038 608.198 527.268 585.177 515.391C570.626 507.882 531.065 492.273 524.293 508.472C516.865 526.239 559.005 580.933 559.005 580.933H763.252C763.252 580.933 749.494 560.993 737.56 547.778Z" fill="#A29DCE"/>
<path d="M482.342 391.487C474.844 383.631 467.641 368.451 465.617 360.355C463.838 353.233 462.249 345.943 458.885 339.36C457.978 337.584 454.082 333.487 455.494 331.356C458.343 327.063 465.254 332.718 467.055 335.275C467.7 336.19 470.08 340.046 471.271 340.271C472.463 340.496 472.965 335.88 473.11 333.9C473.668 326.291 473.704 317.996 473.059 310.298C472.395 302.368 473.524 295.411 476.012 295.044C478.534 294.672 478.403 296.165 478.861 296.662C479.264 294.151 481.55 291.173 483.027 292.011C483.924 292.52 484.25 293.645 484.376 294.67C484.501 295.694 485.111 297.643 485.111 297.643C485.111 297.643 486.542 292.298 489.153 295.321C490.473 296.849 492.483 304.97 493.771 307.549C493.643 305.844 493.21 304.895 493.76 302.903C494.058 301.822 494.668 300.933 495.839 301.501C496.529 301.837 496.729 302.52 496.971 303.191C498.281 306.83 501.504 312.684 502.676 316.37C503.896 320.213 505.117 324.058 506.338 327.901C508.633 335.126 510.876 342.729 512.521 350.266C514.044 357.239 519.633 374.421 519.633 374.421" fill="#A04B4B"/>
<path d="M478.79 297.092C479.455 301.227 480.968 306.498 481.798 311.185C482.986 317.905 483.523 324.126 484.539 330.044" stroke="black" stroke-width="1.18571" stroke-miterlimit="10"/>
<path d="M485.468 297.772C486.263 301.313 487.642 306.217 488.567 310.247C490.111 316.981 491.244 323.016 492.572 328.931" stroke="black" stroke-width="1.18571" stroke-miterlimit="10"/>
<path d="M493.752 307.436C495.714 313.87 498.552 321.251 500.8 329.394" stroke="black" stroke-width="1.18571" stroke-miterlimit="10"/>
<path d="M472.025 339.864C471.521 343.262 471.268 346.873 469.003 349.843" stroke="black" stroke-width="1.18571" stroke-miterlimit="10"/>
<path d="M736.127 580.932C733.471 573.835 730.63 566.378 726.636 559.872C722.643 553.366 717.423 547.413 710.763 543.335C707.775 541.506 704.541 540.076 701.318 538.652C692.65 534.824 683.983 530.997 675.316 527.167L632.773 510.572C630.141 508.128 627.51 505.685 624.882 503.239C619.802 498.508 614.735 493.764 609.708 488.974C609.515 488.79 609.323 488.606 609.129 488.423C570.621 451.667 541.982 410.601 516.965 362.675L472.027 382.385C472.027 382.385 491.464 448.614 509.93 476.729C534.324 513.868 562.538 547.65 575.288 558.347C577.563 565.988 580.169 573.529 583.122 580.934L736.127 580.932Z" fill="#FCDDD2"/>
<path d="M479.26 405.168L527.461 381.992" stroke="black" stroke-width="1.18571" stroke-miterlimit="10"/>
<path d="M481.664 378.156L497.916 413.422" stroke="black" stroke-width="1.18571" stroke-miterlimit="10"/>
<path d="M496.935 385.566C496.935 387.324 495.51 388.75 493.752 388.75C491.994 388.75 490.568 387.325 490.568 385.566C490.568 383.809 491.993 382.383 493.752 382.383C495.509 382.384 496.935 383.809 496.935 385.566Z" stroke="#D8A798" stroke-width="1.18571" stroke-miterlimit="10"/>
<path d="M670.639 579.991C672.855 577.105 675.071 574.218 677.287 571.332C679.678 568.217 682.076 565.096 684.775 562.244C692.652 553.922 703.282 548 714.675 546.764" stroke="#D8A798" stroke-width="1.18571" stroke-miterlimit="10"/>
<path d="M573.954 554.207C573.954 542.691 577.801 531.26 584.425 521.873C592.769 510.05 605.048 501.56 619.889 501.136" stroke="#D8A798" stroke-width="1.18571" stroke-miterlimit="10"/>
<path d="M575.085 557.896C572.96 551.568 571.739 544.471 568.376 538.651" stroke="black" stroke-width="1.18571" stroke-miterlimit="10"/>
<path d="M619.227 505.857L616.423 541.206C616.423 541.206 628.305 553.308 644.642 545.427C660.98 537.546 672.897 522.555 672.897 522.555L667.555 500.643" fill="#A04B4B"/>
<path d="M684.165 461.818C682.514 456.652 679.418 451.933 675.254 448.525C665.235 440.322 654.214 440.546 643.453 446.868C634.101 452.362 621.264 461.034 614.131 469.33C606.77 477.895 601.843 488.545 609.361 498.558C621.459 514.672 655.386 509.21 671.571 495.995C678.163 490.614 684.383 481.877 685.356 473.273C685.788 469.437 685.347 465.513 684.165 461.818Z" fill="#A04B4B"/>
<path d="M641.371 451.364C635.979 454.108 630.076 454.837 624.17 455.537C621.331 455.872 617.574 456.825 618.087 460.552C618.419 462.955 620.51 465.026 622.252 466.494" fill="#A04B4B"/>
<path d="M617.856 488.061C617.856 488.061 618.837 485.854 619.326 484.748C620.267 482.619 617.206 481.184 615.746 480.449C614.688 479.916 614.127 479.443 613.071 480.137C612.801 480.315 611.261 481.803 610.93 481.533C610.912 481.519 608.081 478.223 608.081 478.223C605.88 481.66 604.465 488.185 604.779 492.056C605.094 495.927 606.591 499.777 609.359 502.502C610.47 503.595 612.211 505.173 613.547 505.976C624.686 512.675 638.575 512.166 650.689 507.456C654.43 506.002 658.075 504.06 660.8 501.113C623.711 500.574 617.856 488.061 617.856 488.061Z" fill="#1E1611"/>
<path d="M662.086 485.584C661.92 485.548 661.755 485.516 661.592 485.489C659.117 485.08 656.666 485.443 654.226 484.641C652.26 483.995 650.431 482.773 649.352 481.009C648.076 478.923 649.828 477.709 651.526 476.771C654.038 475.384 656.486 473.827 658.53 471.813C661.89 468.502 663.661 463.755 662.203 459.132C660.623 454.118 655.685 451.174 651.854 447.996C648.163 444.934 643.446 440.166 645.002 434.856C646.563 429.529 651.712 427.587 656.795 428.339C659.524 428.743 662.274 429.507 664.999 429.083C666.383 428.868 667.703 428.351 669.071 428.043C673.27 427.102 678.112 428.447 680.613 431.949C682.414 434.472 683.113 438.049 685.892 439.425C687.228 440.088 688.788 440.074 690.24 440.416C693.193 441.111 695.686 443.355 696.888 446.14C698.089 448.924 698.041 452.179 696.961 455.016C695.023 460.112 692.12 462.663 694.503 468.286C700.034 481.339 702.359 497.367 689.145 506.753C685.669 509.222 681.316 510.498 678.424 513.63C676.619 515.582 675.146 518.366 672.503 518.648C670.726 518.837 669.052 517.74 667.834 516.432C666.742 515.259 665.885 513.892 665.039 512.533C663.867 510.648 662.674 508.677 662.434 506.473C662.089 503.325 663.723 500.343 665.207 497.547C666.606 494.91 669.42 489.444 666.091 487.264C664.944 486.512 663.472 485.888 662.086 485.584Z" fill="#1E1611"/>
<path d="M653.923 457.067C653.092 454.54 651.571 452.029 649.23 453.17C648.644 453.455 648.302 454.099 648.211 454.744C648.118 455.387 648.237 456.042 648.355 456.681C648.907 459.676 649.491 462.753 651.113 465.332C651.44 465.852 651.828 466.366 652.378 466.642C656.05 468.485 654.398 458.511 653.923 457.067Z" fill="#1E1611"/>
<path d="M630.727 474.156L620.338 471.801C620.338 471.801 619.319 480.71 623.735 481.594C628.15 482.477 630.727 474.156 630.727 474.156Z" fill="white"/>
<path d="M619.709 463.702C620.572 464.821 621.744 465.699 623.059 466.214" stroke="black" stroke-width="1.18571" stroke-miterlimit="10"/>
<path d="M631.187 454.563C635.087 453.994 638.879 452.691 642.303 450.74" stroke="black" stroke-width="1.18571" stroke-miterlimit="10"/>
<path d="M659.665 485.948C663.496 483.063 670.452 485.828 671.88 490.119C675.313 500.439 658.767 509.052 651.508 502.659C649.454 500.851 647.903 497.16 649.71 494.527" fill="#A04B4B"/>
<path d="M665.91 495.755L654.208 493.76" stroke="black" stroke-width="1.18571" stroke-miterlimit="10"/>
<path d="M667.107 485.846C664.77 484.957 662.139 484.816 659.663 485.445" stroke="black" stroke-width="1.18571" stroke-miterlimit="10"/>
<path d="M649.974 494.638C648.668 496.871 649.056 499.618 650.478 501.696C653.066 505.475 659.325 505.492 663.102 503.876" stroke="black" stroke-width="1.18571" stroke-miterlimit="10"/>
<path d="M643.043 465.62C641.562 466.692 639.74 466.701 638.974 465.642C638.206 464.582 638.785 462.854 640.266 461.783C641.747 460.712 643.569 460.702 644.335 461.761C645.102 462.821 644.523 464.549 643.043 465.62Z" fill="black"/>
<path d="M678.664 521.404C641.371 525.825 618.54 542.901 618.54 542.901L625.026 572.531C658.381 540.817 690.831 533.662 691.157 533.321L678.664 521.404Z" fill="#FCDDD2"/>
<path d="M617.462 523.971L603.417 532.986C603.417 532.986 601.001 558.186 605.612 571.587L618.542 542.899L617.462 523.971Z" fill="#FCDDD2"/>
<path d="M618.54 542.903L625.026 572.533C658.381 540.819 690.831 533.664 691.157 533.323" stroke="black" stroke-width="1.18571" stroke-miterlimit="10"/>
<path d="M617.462 523.971L603.417 532.986C603.417 532.986 601.001 558.186 605.612 571.587L618.542 542.899" stroke="black" stroke-width="1.18571" stroke-miterlimit="10"/>
<path d="M479.065 443.851C482.833 457.249 488.417 470.134 495.618 482.044" stroke="black" stroke-width="1.18571" stroke-miterlimit="10"/>
<path d="M480.295 466.862C482.662 475.478 485.501 483.962 488.793 492.266" stroke="black" stroke-width="1.18571" stroke-miterlimit="10"/>
<path d="M710.541 484.924C710.743 491.062 708.356 497.1 704.702 502.038C701.048 506.975 696.186 510.902 691.052 514.274" stroke="black" stroke-width="1.18571" stroke-miterlimit="10"/>
<path d="M706.366 514.057C711.507 511.14 715.893 506.906 718.99 501.873" stroke="black" stroke-width="1.18571" stroke-miterlimit="10"/>
</svg>
